name C:\Users\u0101727\Documents\MyRepositories\upper-imu-dc\Results\main_tracking\Case_70\kinematics.mot
datacolumns 10
datarows 37
range 8.05000000 8.41000000
endheader 
time	clav_prot	clav_elev	scapula_abduction	scapula_elevation	scapula_upward_rot	scapula_winging	plane_elv	shoulder_elv	axial_rot	
          8.05000000	        -40.26320280	          4.98548707	        -24.50566075	         -4.18550747	         41.76140946	         -8.35893368	         31.08350352	         74.14909051	         -4.78338394	
          8.06000000	        -40.25923717	          4.91718817	        -24.86574703	         -4.17099218	         41.25174457	         -8.25152059	         31.07438039	         73.80480118	         -4.88013779	
          8.07000000	        -40.26040195	          4.85442152	        -25.21801981	         -4.15432436	         40.76384069	         -8.15048265	         31.04938337	         73.45036769	         -4.98205420	
          8.08000000	        -40.26634399	          4.79686983	        -25.56180764	         -4.13589008	         40.29782811	         -8.05578473	         31.00853498	         73.08589682	         -5.08773681	
          8.09000000	        -40.27668065	          4.74416538	        -25.89646818	         -4.11608675	         39.85372130	         -7.96732942	         30.95194723	         72.71151180	         -5.19576649	
          8.10000000	        -40.29101706	          4.69591520	        -26.22141768	         -4.09530613	         39.43142430	         -7.88497339	         30.87984199	         72.32735218	         -5.30474510	
          8.11000000	        -40.30896064	          4.65172241	        -26.53615543	         -4.07392007	         39.03073568	         -7.80854144	         30.79256540	         71.93357297	         -5.41333396	
          8.12000000	        -40.33013220	          4.61120378	        -26.84028144	         -4.05226864	         38.65135346	         -7.73783770	         30.69059446	         71.53034260	         -5.52028706	
          8.13000000	        -40.35417276	          4.57400413	        -27.13350717	         -4.03065056	         38.29287990	         -7.67265407	         30.57453613	         71.11783967	         -5.62448026	
          8.14000000	        -40.38074619	          4.53980822	        -27.41565956	         -4.00931500	         37.95482536	         -7.61277571	         30.44512059	         70.69624886	         -5.72493625	
          8.15000000	        -40.40953746	          4.50834963	        -27.68667917	         -3.98845503	         37.63661008	         -7.55798312	         30.30318955	         70.26575800	         -5.82084420	
          8.16000000	        -40.44024663	          4.47941522	        -27.94661219	         -3.96820370	         37.33756375	         -7.50805041	         30.14967905	         69.82655740	         -5.91157130	
          8.17000000	        -40.47257885	          4.45284363	        -28.19559597	         -3.94863381	         37.05692322	         -7.46273933	         29.98559559	         69.37884261	         -5.99666375	
          8.18000000	        -40.50623154	          4.42851712	        -28.43383826	         -3.92976211	         36.79382968	         -7.42178953	         29.81198486	         68.92281995	         -6.07583619	
          8.19000000	        -40.54088059	          4.40634772	        -28.66159196	         -3.91155791	         36.54732786	         -7.38490707	         29.62989445	         68.45871341	         -6.14895142	
          8.20000000	        -40.57616823	          4.38625987	        -28.87912799	         -3.89395484	         36.31636937	         -7.35175340	         29.44033369	         67.98677093	         -6.21599408	
          8.21000000	        -40.61169485	          4.36817199	        -29.08670982	         -3.87686489	         36.09982164	         -7.32193717	         29.24423446	         67.50726829	         -6.27704257	
          8.22000000	        -40.64701651	          4.35197870	        -29.28457285	         -3.86019322	         35.89648240	         -7.29501052	         29.04241608	         67.02051018	         -6.33224214	
          8.23000000	        -40.68164796	          4.33753533	        -29.47291005	         -3.84385266	         35.70509803	         -7.27046978	         28.83555653	         66.52682838	         -6.38178118	
          8.24000000	        -40.71506997	          4.32464582	        -29.65186365	         -3.82777658	         35.52438407	         -7.24776020	         28.62417109	         66.02657741	         -6.42587179	
          8.25000000	        -40.74673934	          4.31305496	        -29.82152228	         -3.81192915	         35.35304613	         -7.22628371	         28.40859834	         65.52012808	         -6.46473435	
          8.26000000	        -40.77610006	          4.30244509	        -29.98192217	         -3.79631224	         35.18979942	         -7.20540869	         28.18899342	         65.00785961	         -6.49858417	
          8.27000000	        -40.80259445	          4.29243738	        -30.13305194	         -3.78096892	         35.03338572	         -7.18448073	         27.96532949	         64.49015111	         -6.52761734	
          8.28000000	        -40.82567421	          4.28259709	        -30.27486114	         -3.76598341	         34.88258682	         -7.16283419	         27.73740903	         63.96737318	         -6.55199432	
          8.29000000	        -40.84481187	          4.27244272	        -30.40727329	         -3.75147783	         34.73623441	         -7.13980440	         27.50488698	         63.43988037	         -6.57182277	
          8.30000000	        -40.85951310	          4.26145809	        -30.53020363	         -3.73760643	         34.59321669	         -7.11474075	         27.26730517	         62.90800555	         -6.58714298	
          8.31000000	        -40.86932977	          4.24910649	        -30.64358048	         -3.72454782	         34.45248240	         -7.08702021	         27.02413518	         62.37205685	         -6.59791954	
          8.32000000	        -40.87387281	          4.23484571	        -30.74736791	         -3.71249642	         34.31304322	         -7.05606063	         26.77482432	         61.83231698	         -6.60404176	
          8.33000000	        -40.87282392	          4.21814312	        -30.84158708	         -3.70165348	         34.17397553	         -7.02133310	         26.51883896	         61.28904448	         -6.60533390	
          8.34000000	        -40.86594484	          4.19849026	        -30.92633392	         -3.69221833	         34.03442219	         -6.98237283	         26.25570116	         60.74247621	         -6.60157535	
          8.35000000	        -40.85308377	          4.17541649	        -31.00179210	         -3.68437995	         33.89359452	         -6.93878780	         25.98501529	         60.19283052	         -6.59253062	
          8.36000000	        -40.83417807	          4.14850000	        -31.06824007	         -3.67830997	         33.75077381	         -6.89026442	         25.70648400	         59.64031052	         -6.57798798	
          8.37000000	        -40.80925339	          4.11737495	        -31.12605194	         -3.67415810	         33.60531230	         -6.83656959	         25.41991325	         59.08510854	         -6.55780426	
          8.38000000	        -40.77842021	          4.08173362	        -31.17569287	         -3.67205062	         33.45663400	         -6.77754954	         25.12520712	         58.52741362	         -6.53195092	
          8.39000000	        -40.74186776	          4.04132408	        -31.21771016	         -3.67209170	         33.30423417	         -6.71312541	         24.82235551	         57.96742272	         -6.50055630	
          8.40000000	        -40.69985660	          3.99594564	        -31.25272277	         -3.67436583	         33.14767713	         -6.64328686	         24.51141867	         57.40535474	         -6.46393990	
          8.41000000	        -40.65271068	          3.94544536	        -31.28141182	         -3.67893908	         32.98659233	         -6.56808528	         24.19251353	         56.84146534	         -6.42263660	
